<?xml version="1.0" encoding="UTF-8"?>
<svg id="Layer_2" data-name="Layer 2" xmlns="http://www.w3.org/2000/svg" viewBox="0 0 606.57 521.46">
  <defs>
    <style>
      .cls-1 {
        fill: #d32f2f;
        stroke-width: 0px;
      }
    </style>
  </defs>
  <g id="Objects">
    <path class="cls-1" d="m565.42,295.41c-37.58,59.12-152.06,177.67-262.14,226.06-110.09-48.39-224.57-166.93-262.14-226.06C12.96,251.05-2.56,203.86.35,151.38,2.87,105.79,25.91,61.72,61.94,33.66,97.97,5.62,146.36-5.92,191.16,2.92c47.8,9.42,90.25,42.25,112.13,85.68,21.87-43.43,64.32-76.26,112.13-85.68,44.79-8.84,93.2,2.7,129.22,30.75,36.03,28.05,59.06,72.13,61.58,117.72,2.9,52.48-12.61,99.67-40.8,144.02Z"/>
  </g>
</svg>